/* XPM */
static char *exit[] = {
"64 64 133 2 ",
"   c None",
".  c #010101",
"X  c #080906",
"o  c #090909",
"O  c #131313",
"+  c #1B1C1C",
"@  c #21211F",
"#  c #222321",
"$  c #272A27",
"%  c #292B29",
"&  c #323332",
"*  c #353837",
"=  c #363938",
"-  c #393939",
";  c #413C42",
":  c #444644",
">  c #474946",
",  c #484B47",
"<  c #474948",
"1  c #4B4C4B",
"2  c #52524F",
"3  c #525251",
"4  c #5A555B",
"5  c #5A5B5A",
"6  c #5F605E",
"7  c #646464",
"8  c #696967",
"9  c #6B6B6B",
"0  c #6E716E",
"q  c #716F70",
"w  c #747473",
"e  c #7B7B7A",
"r  c #7E817E",
"t  c #81827F",
"y  c #7F7D80",
"u  c #827E82",
"i  c #7F8380",
"p  c #858685",
"a  c #888584",
"s  c #858887",
"d  c #898689",
"f  c #8C8D8C",
"g  c #8E908F",
"h  c #8F9190",
"j  c #939493",
"k  c #9C9C9C",
"l  c #A19FA0",
"z  c #A3A3A3",
"x  c #ACA6AD",
"c  c #ACACAC",
"v  c #B5B5B5",
"b  c #B6B9B6",
"n  c #B9BAB7",
"m  c #BABBBA",
"M  c #BDC0BF",
"N  c #BFBDC0",
"B  c #C3BEC4",
"V  c #BFC1C0",
"C  c #C2C3C2",
"Z  c #C6C8C7",
"A  c #C8C9C6",
"S  c #CDCDCD",
"D  c #D1CECF",
"F  c #D1CECF",
"G  c #D0D0D0",
"H  c #D3D6D5",
"J  c #D5D7D6",
"K  c #D7D7D7",
"L  c #D8DBDA",
"P  c gray86",
"I  c #DADDDC",
"U  c gainsboro",
"Y  c #DDDDDD",
"T  c #DDDFDE",
"R  c gray87",
"E  c #DADADA",
"W  c #DEE0E0",
"Q  c gray88",
"!  c #E1E1E1",
"~  c #E2E2E2",
"^  c gray89",
"/  c #E4E4E4",
"(  c #E4E4E4",
")  c #E9E9E9",
"_  c gray92",
"`  c #EAEAEA",
"'  c #ECECEC",
"]  c #EEEEEE",
"[  c #EFEFEF",
"{  c #E9E9E9",
"}  c #F0EEEF",
"|  c #F0EEEF",
" . c #F1EFF0",
".. c #F1EFF0",
"X. c #EFF2F1",
"o. c gray94",
"O. c #F1F1F1",
"+. c gray95",
"@. c #F3F3F3",
"#. c #F5F5F2",
"$. c #F6F4F2",
"%. c gray96",
"&. c #F7F5F4",
"*. c #F4F7F4",
"=. c #F6F6F4",
"-. c #F7F7F5",
";. c #F4F6F6",
":. c gray97",
">. c #F5F5F5",
",. c #F5F8F7",
"<. c #F6F9F6",
"1. c #F8FAF7",
"2. c #F8FAF7",
"3. c #F6F9F8",
"4. c #F6F9F8",
"5. c #F9F9F9",
"6. c #FAFBF8",
"7. c #F9FBFA",
"8. c #FDFDFB",
"9. c #FCFBFC",
"0. c #FBFDFD",
"q. c #FDFDFD",
"w. c #FCFFFC",
"e. c #FDFFFD",
"r. c #FEFEFC",
"t. c #FFFFFD",
"y. c #FFFDFF",
"u. c #FCFFFE",
"i. c #FDFFFF",
"p. c #FEFEFE",
"a. c #FFFFFE",
"s. c white",
"d. c #FEFEFE",
"                                                                                                                                ",
"                                                                                                                                ",
"                                                                                                                                ",
"                                                                                                                                ",
"                                                                                                                                ",
"                                                                                                                                ",
"                                                                                                                                ",
"                                                                                                                                ",
"                                                                                                                                ",
"                                                                                                                                ",
"                                                                                                                                ",
"                                                              . . .                                                             ",
"                                                            X X * .                                                             ",
"                                                            X * 9 .                                                             ",
"                                                          X X X * . .                                                           ",
"                                                        X X 7 j z w . .                                                         ",
"                                                        X > S S o.o.z O                                                         ",
"                                                        X f S S o.z z O .                                                       ",
"                                                      . X < < > 5 5 5 O .                                                       ",
"                                                    . . > G f f z 5 z 5 . .                                                     ",
"                                                    . 1 s.C z s.s.C z s.k . .                                                   ",
"                                                  . . ~ ~ z C ~ ~ R z R ) 1 .                                                   ",
"                                                  . 1 ~ ~ z C Q ~ ~ z C ) ) . .                                                 ",
"                                                  . j ~ ~ z ~ R ~ R z C [ [ 1 .                                                 ",
"                                                . . H J s.V s.s.w.w.C A s.s.c o                                                 ",
"                                  . . . . . . . . > h > 1 1 1 < 3 3 2 3 6 5 5 X . . . . . . . .                                 ",
"                              . . . . . . . . . . . : f s s s f f f f f 5 5 o o . . . . . . . . . .                             ",
"                            . . s C C C C C C C J f h J s.s.s.C C 7.w.s.s.c 5 c V C M C M M M M & . .                           ",
"                          X X j :.:.:.:.:.:.:.:.R j j I j 5 5 h e p : e w.v 9 s.<.:.<.<.<.<.<.<.R 1 X X                         ",
"                      . X X k ~ C C C C C C C C W j j j 5 Z C C n b m e 9 8 9 b C C C C C C C C R L 1 X .                       ",
"                    . O 1 1 k 1 5 5 5 5 5 5 5 5 < 1 . j 4.5 5 j t e : n b # @ 8 5 5 5 5 5 5 5 5 1 3 1 1 + .                     ",
"                    . X 1 1 1 1 5 5 5 5 5 5 5 5 1 < . L 6 g 7.4.:.#.:.> s.8 @ 9 5 5 5 5 5 5 5 5 3 3 1 1 % .                     ",
"                    . X 1 1 < 1 1 1 , , % % % % - * e n + 5 7 7 5 5 5 + 8 ) % % % % % % % % % % 1 < < < @ .                     ",
"                    . X . < < < 1 1 , 1 0 9 9 0 e = e m # 7 z # + 5 k + c c % 8 0 0 0 0 0 0 0 0 < < < < o .                     ",
"                      . . j R j s s.s.w.#.#.#.#.7.s.e * 7 z 7 ~ ~ z 5 5 9 7 c [ :.:.:.:.<.<.<.<.n 1 o.n .                       ",
"                        . j R j s s.s.s.#.#.:.:.s.s.e * / + # z k k + z c % [ [ <.<.<.<.1.1.1.1.n < :.n .                       ",
"                        O 7 s.7 j s.s.s., # # < 9.9.n e o.3 z z f j j j s.w s.s.s.0 % % % b s.s.c 5 s.c .                       ",
"                        O 7 s.7 j s.s.s.5 5 * 5 9.9.n e [ 3 k k j j < j S w s.s.s.0 $ 0 % b s.s.c 5 s.c .                       ",
"                        O 7 s.7 j s.s.s., # # > 9.9.n e [ . 3 [ L ~ . f S w s.s.s.0 $ % % b s.s.c 5 s.c .                       ",
"                        + 7 s.7 j s.s.s.5 1 & 5 9.9.n e o.. k o.R L . j S w s.s.s.0 $ 0 % b s.s.c 5 s.c .                       ",
"                        + 7 s.7 h s.s.s.& & & & 0.0.n e s.O 7 s. .} . l F q s.s.s.w & & % n s.s.c 4 s.c .                       ",
"                        + 7 s.7 h s.s.s.& & & & 0.0.n e s.O 7 s. .} . l F q s.s.s.w & & % b s.s.c 4 s.c .                       ",
"                        + 7 s.7 h s.s.s.w & & w s.s.n e s.O 7 s. .} . l F q s.s.9.e & & % b s.s.c 4 s.c .                       ",
"                        + 7 s.7 h s.s.s.1.1.1.1.s.s.n w s.o 7 s. .} . l F q s.s.s.s.s.s.s.s.s.s.x 4 9.c .                       ",
"                        . j / k M w.s.6.s.s.s.s.s.s.n e :.+ 7 :.o.o.O z 7.s 7.7.s.s.s.s.s.s.s.s.B u s.N .                       ",
"                        . 1 j 1 : t p t s s s s e e e - 7 + c 7.o.:.O + < > p s s s s s s s s d u ; u ; .                       ",
"                      . . j k 1 : r p t s s a a e e - m c + + 7 7 7 + c M 1 < i s s s s s s s d ; ; u y X .                     ",
"                      . . ) ~ / r w.s.s.s.s.s.s.s.s.e s.:.7 v c z c 7 X.:.p n 4.s.s.s.s.s.s.s.s.u u s.s.X .                     ",
"                      . o c s.c w s.s.s.s.s.s.s.s.s.8 S 7.9 8 j z z - J s.w z s.s.s.s.s.s.s.s.s.s s :.:.X .                     ",
"                      . X c s.c w 9.7.9.s.s.s.s.s.s.8 S 7.8 8 k z z - R s.w z s.s.s.s.s.s.s.s.s.s s :.:.X .                     ",
"                      . X s.s.v w s.s.s.s.s.s.s.s.s.8 s.7.9 9 8 9 9 = L s.w z s.s.s.s.s.s.s.s.s.s s :.:.X .                     ",
"                      . X c c 5 & b b b c c c c k z 7 S 7.8 S 7.L J w z s.w w z c c c c c c c c < < m m X .                     ",
"                        . . . . . . . . . . . . . . . X X X X X X X X X X X . . . . . . . . . . . . . . .                       ",
"                                                      . . . . . . . . . X .                                                     ",
"                                                                                                                                ",
"                                                                                                                                ",
"                                                                                                                                ",
"                                                                                                                                ",
"                                                                                                                                ",
"                                                                                                                                ",
"                                                                                                                                ",
"                                                                                                                                ",
"                                                                                                                                ",
"                                                                                                                                "
};
