/* XPM */
static char *d0a8b92ca8794d59a43a72a91d85abf5YYsgB1TLCEp4NUDD[] = {
/* columns rows colors chars-per-pixel */
"64 64 189 2 ",
"   c None",
".  c #000103",
"X  c #00030B",
"o  c #000412",
"O  c #010A14",
"+  c #0A0C17",
"@  c #00051B",
"#  c #000919",
"$  c #01111D",
"%  c #11171E",
"&  c #000620",
"*  c #000B24",
"=  c #011423",
"-  c #0B1723",
";  c #031925",
":  c #091925",
">  c #00132A",
",  c #00192C",
"<  c #0C1E2D",
"1  c #151E25",
"2  c #121E2B",
"3  c #001633",
"4  c #011B35",
"5  c #0C1E33",
"6  c #001C3A",
"7  c #151F32",
"8  c #0D212D",
"9  c #152127",
"0  c #042136",
"q  c #0D2234",
"w  c #03213C",
"e  c #09233C",
"r  c #0D293D",
"t  c #112334",
"y  c #13293B",
"u  c #1D2C3C",
"i  c #212A35",
"p  c #002444",
"a  c #0A2640",
"s  c #042946",
"d  c #0A2A43",
"f  c #002549",
"g  c #042B4B",
"h  c #0A2C4B",
"j  c #122E43",
"k  c #1B2F41",
"l  c #0F3246",
"z  c #05304D",
"x  c #0C314C",
"c  c #123146",
"v  c #1F3644",
"b  c #12334B",
"n  c #1D344A",
"m  c #012F54",
"M  c #0C2F55",
"N  c #022F59",
"B  c #043153",
"V  c #0C3354",
"C  c #06335B",
"Z  c #0A355C",
"A  c #0B3A5E",
"S  c #143555",
"D  c #163851",
"F  c #1E3C56",
"G  c #11375B",
"H  c #123A5C",
"J  c #1B3E5C",
"K  c #203544",
"L  c #203348",
"P  c #253A4D",
"I  c #2B3C4D",
"U  c #233D55",
"Y  c #293F50",
"T  c #213E5A",
"R  c #073760",
"E  c #063861",
"W  c #0A3A64",
"Q  c #0F3F69",
"!  c #123D62",
"~  c #193F61",
"^  c #19405D",
"/  c #274050",
"(  c #2A4455",
")  c #25435B",
"_  c #2B455C",
"`  c #2A495E",
"'  c #324452",
"]  c #314559",
"[  c #334B5E",
"{  c #0F416B",
"}  c #144364",
"|  c #1D4364",
" . c #1F4865",
".. c #12436B",
"X. c #1D466A",
"o. c #1D496D",
"O. c #134771",
"+. c #174B75",
"@. c #1C4D75",
"#. c #1D5073",
"$. c #244562",
"%. c #294763",
"&. c #254965",
"*. c #2B4B64",
"=. c #224569",
"-. c #244B6B",
";. c #2B4E6B",
":. c #314C64",
">. c #324D69",
",. c #2E516B",
"<. c #35536B",
"1. c #3D556B",
"2. c #254D74",
"3. c #2B4F72",
"4. c #245076",
"5. c #2D5474",
"6. c #23517A",
"7. c #2A557A",
"8. c #2E5878",
"9. c #365574",
"0. c #3B5772",
"q. c #3C5A74",
"w. c #345578",
"e. c #355A7C",
"r. c #385B7A",
"t. c #37627F",
"y. c #3D617C",
"u. c #40576F",
"i. c #415C6E",
"p. c #425E75",
"a. c #486377",
"s. c #42627C",
"d. c #4A647E",
"f. c #1F5681",
"g. c #2E5780",
"h. c #255C87",
"j. c #2B5C80",
"k. c #2B5D8A",
"l. c #325D82",
"z. c #395E84",
"x. c #325F8C",
"c. c #2C608B",
"v. c #316085",
"b. c #3C6283",
"n. c #3E6285",
"m. c #3C6486",
"M. c #3C6585",
"N. c #3D6884",
"B. c #33608C",
"V. c #37658E",
"C. c #35658D",
"Z. c #34648C",
"A. c #38678A",
"S. c #3A668C",
"D. c #38668E",
"F. c #39648C",
"G. c #3A658B",
"H. c #3B688B",
"J. c #386888",
"K. c #3D698E",
"L. c #39688F",
"P. c #2C6491",
"I. c #2C6695",
"U. c #2E6895",
"Y. c #2F679A",
"T. c #2D6B9C",
"R. c #336692",
"E. c #3A6791",
"W. c #346995",
"Q. c #396993",
"!. c #346798",
"~. c #336B9B",
"^. c #3A6D9B",
"/. c #2D6DA2",
"(. c #336DA2",
"). c #386DA2",
"_. c #406483",
"`. c #406584",
"'. c #496580",
"]. c #416884",
"[. c #446887",
"{. c #496A83",
"}. c #46668B",
"|. c #40678C",
" X c #42698A",
".X c #446B8C",
"XX c #406C91",
"oX c #426B92",
"OX c #417090",
/* pixels */
"                                                                                                                                ",
"                                                                                                                                ",
"                                                                                                                                ",
"                                                                                                                                ",
"                                                                                                                                ",
"                                                                                                                                ",
"                                                                                                                                ",
"                                                                                                                                ",
"                                                                                                                                ",
"                                                                                                                                ",
"                                                                                                                                ",
"                                                                . . X                                                           ",
"                                                              . . % X                                                           ",
"                                                              . 9 i X                                                           ",
"                                                            . . X - X .                                                         ",
"                                                          . X 8 / _ k X .                                                       ",
"                                                          X 8 ,.4.Z.b.( O                                                       ",
"                                                          X P 5.6.V.X.) O .                                                     ",
"                                                        . X q 4 w s s r O .                                                     ",
"                                                      X X 5 >.D D $.s ) y X X                                                   ",
"                                                      . q _.7.o.H.j.6.} ].) o X                                                 ",
"                                                    . o q.v.+.+.c.k.h...l.n.e X                                                 ",
"                                                    X 0 r.l.+.f.P.k.k...6.B.e.o X                                               ",
"                                                    X T e.l.o.c.c.k.k.X.4.x.z.5 X                                               ",
"                                                  . X 0.e. X4.H.H.H.|.8.3.oX}.] O                                               ",
"                                    . . . . . . . . 2 T p p p p p f f p p g h y O X . . . . . . .                               ",
"                                . X o X o o o o o o @ w } A W A ! ! ! W Z g h @ O X X X X X X X X . .                           ",
"                              . X n >.>.>.:.:.:.:.u.U J e.H.A.H.2.7.H.H.XX|.-.a _ :.:.*.:.:.:.:.[ = X .                         ",
"                            X o T m.V.V.V.V.V.V.A.l.~ ~ w.^ s g ~ G V p V n.-.V  XF.F.F.F.F.F.F.F.w.e O X                       ",
"                        . . X Y q.2.6.6.6.6.6.6.4.e.J J J d ;.5.4.-.-.&.S V h h -.4.6.6.6.6.6.6.6.l.9.5 o .                     ",
"                      . . 1 < Y e a d d d d d d a 5 5 @ T s.z g } A A w -.-.> * j r a a a a a a r w q 5 2 O .                   ",
"                      . . 9 8 q 5 q q q q q q q q < < @ 1.r J N.t.b.m.y.6 _.b = u t t t t t t t t q q 5 7 + .                   ",
"                      . . 1 2 8 q q t < 8 = = = = = ; b ` = y j j r y y = h y.= $ = = = = = = = = t t t 9 O .                   ",
"                      . . X 2 q 4 q e w r j j j j d , b *.= y ( = = y I = ) &.> j c c l l l c c c q q q t X .                   ",
"                        . X I 0.J H K.W.R.R.R.R.R.W.Z.b , j ) j 0.q.) y y j h -.Z.R.W.R.W.W.W.R.F.) w [.%.X                     ",
"                          X P w...W !././.R.R.R.R.T.Y.z 4 q.3 3 &.| $.> Y ) 3 c.I.Y.Y.R.E.W.U.T.R.| w E.-.X                     ",
"                          X v N.A { ^./.~.p 3 > p ~.~.4.S b.p } | J T T F [.Z ).).^.Z 3 > 4 2.~.~.X.s L. .X                     ",
"                          . v N.A Q !.(.!.d t : r !.~.4.G b.g | X.~ J 6 F 8.N ).).^.V > u > -.~.~.X.g R. .X                     ",
"                          X v N.W Q !.(.!.0 $ $ w !.~.4.S s.& f x.l.e.@ P 9.Z ^.~.Q.S * = ; -.~.~.X.s K. .X                     ",
"                          X v m.W Q !.(.!.d 8 : r !.~.2.S p.@ | B.k.g.@ I 9.Z !.(.Q.V = u ; -.~.~.X.g K.| X                     ",
"                          . K m.W { !./.!., : : , !.~.2.S d.@ H R.U.V.& L 9.C ~.~.Q.S ; : = -.~.~.o.g Q.-.X                     ",
"                          . K M.W { !.T.!.4 > = 4 !.~.2.S d.& H R.Y.R.* n w.C ~.(.Q.V , > > 2.~.~.X.f R.X.X                     ",
"                          X v m.W ..!.~.!.V 4 4 V !.!.2.S '.& H Q.Y.R.* n 9.C ~.(.~.R 6 3 3 @.(.~.-.g Q.-.X                     ",
"                          X K _.A ! Q.~.!.V.A.G.V.!.!.2.S d.& H Q.U.V.& n 9.C !.(.~.!.Q.H.F.Q.Y.~.=.s K. .X                     ",
"                          X I q.J -.A.E.R.E.Q.E.Q.Q.F.-.b a.> g C.I.Z.= ' s.H F.E.!.R.Q.E.Q.Q.!.Q.3.S .X,.X                     ",
"                          X 8 T p w V Z E W W W W E Z V 4 j = &.Z.Z.J.= = e p ! W W W W W W W W W S 6 V 4 X                     ",
"                        . X P F p 6 V A E W W W W R A 6 ;.` > 3 h g s > ` ;.p f W W W W W W W W A 4 4 G S X .                   ",
"                        . X i.y.e.V J.V.R.!.!.W.!.!.Q.Z  Xs.l %.*.&.%.d y.`.! 4.Z.R.E.!.!.!.!.!.F.b D E.[.X .                   ",
"                        . O _ .X#.C Z.U.I.Y.T.T.T.~.^.B 8.N.g x | | =.6 r.A.C ..R.~.T.T.T.T.T.T.!.S S !.A.o .                   ",
"                        . O *.OX@.C V.Y.T.T.T.T.T.(.^.m 5.J.z z ^ X.| 6 r.H.C O.P.~.T.T.T.T.T.T.W.G V R.Z.o .                   ",
"                        . # {..Xo.V F.!.U.~.~.W.~.^.^.B 8.J.B B B V V 6 w.J.C 2.E.W.W.W.W.W.W.W.E.S S Q.F.o .                   ",
"                        . O _ *.d 3 %.-.-.-.-.-.-.| ^ d <.s.h ,.s.q.q.j ) s.x x | -.-.-.-.-.-.-.&.5 5 ;.;.X .                   ",
"                          . X X X X X X X X X X o X X X X X X X X o X X X X X X X X X X X X X X X X X X X .                     ",
"                                                        . . . . . . . . . . .                                                   ",
"                                                                                                                                ",
"                                                                                                                                ",
"                                                                                                                                ",
"                                                                                                                                ",
"                                                                                                                                ",
"                                                                                                                                ",
"                                                                                                                                ",
"                                                                                                                                ",
"                                                                                                                                ",
"                                                                                                                                "
};
