/* XPM */
static char *player[] = {
"64 64 4 1 ",
"  c None",
". c Black",
"0 c #003C7B",
"z c #00407E",
"                                                                ",
"                                                                ",
"                                                                ",
"                                                                ",
"                                                                ",
"                                                                ",
"                                .                               ",
"                              .....                             ",
"                             .......                            ",
"                             ...0...                            ",
"                            ...000...                           ",
"                           ...0000...                           ",
"                           ...00zzzz..                          ",
"                          ...zzzzzzz...                         ",
"                          ...0zzzzzz...                         ",
"                         ...zzzzzzzzz...                        ",
"                         ...0zzzzzzz0...                        ",
"                        ...0zzzzzzzz00...                       ",
"                       ...00zzzzzzzz00...                       ",
"                       ...00zzzzzzzz000...                      ",
"                      ..0000zzzzzzzzzzzz...                     ",
"                      ..0000zzzzzzzzzzzz...                     ",
"                     ...0000zzzzzzzzzzzzz...                    ",
"                     ..00000zzzzzzzzzzzzz...                    ",
"                    ...zzzzzzzzzz000zzzzzz...                   ",
"                   ...zzzzzzzzzz.000zzzzzz....                  ",
"                   ...zzzzzzzz0...00zzzzzzz...                  ",
"                  ...zzzzzzzzzz...00zzzzzzzz...                 ",
"                  ..zzzzzzzzzz.....00zzzzzzz...                 ",
"                 ...zzzzzzzzz......00zzzzzzzz...                ",
"                ...zzzzzzzzzz... ...00zzzzzz0....               ",
"                ...zzzzzzzzz...   ...00zzzzz00...               ",
"               ...zzzzzzzzzz...   ....00zzzzz00...              ",
"               ...zzzzzzzzz...........00zzzzz00...              ",
"              ...zzzzzzzz0.............0zzzzzzz0...             ",
"             ....000zzzzz0.............0zzzzzzz0...             ",
"             ...zzzzzzzzzzzzzzzzzzzzzzzzzzzzzzzz0...            ",
"            ...zzzzzzzzzzzzzzzzzzzzzzzzzzzzzzzzzz0...           ",
"            ...zzzzzzzzzzzzzzzzzzzzzzzzzzzzzzzzzz0...           ",
"           ...zzzzzzzzzzzzzzzzzzzzzzzzzzzzzzzzzzzz0...          ",
"          ...00000000000000000000000000000000000000...          ",
"          ...000000000000000000000000000000000000000...         ",
"          ............................................          ",
"           ...........................................          ",
"            ........................................            ",
"                                                                ",
"                                                                ",
"                                                                ",
"                                                                ",
"                                                                ",
"                                                                ",
"                                                                ",
"                                                                ",
"                                                                ",
"                                                                ",
"                                                                ",
"                                                                ",
"                                                                ",
"                                                                ",
"                                                                ",
"                                                                ",
"                                                                ",
"                                                                ",
"                                                                "
};
